STARTFONT 2.1
COMMENT Double story a, for use with normal Tewi as a fallback.
COMMENT 
COMMENT This file is part of bdf-tewi.
COMMENT 
COMMENT Tewi is free software: you can redistribute it and/or modify
COMMENT it under the terms of the GNU General Public License as published by
COMMENT the Free Software Foundation, either version 3 of the License, or
COMMENT (at your option) any later version.
COMMENT 
COMMENT Tewi is distributed in the hope that it will be useful,
COMMENT but WITHOUT ANY WARRANTY; without even the implied warranty of
COMMENT MERCHANTABILITY or FITNESS FOR A PARTICULAR PURPOSE.  See the
COMMENT GNU General Public License for more details.
COMMENT 
COMMENT You should have received a copy of the GNU General Public License
COMMENT along with bdf-tewi.  If not, see <http://www.gnu.org/licenses/>.
COMMENT 
COMMENT As a special exception, if you create a document which uses this
COMMENT font, and embed this font or unaltered portions of this font into
COMMENT the document, this font does not by itself cause the resulting
COMMENT document to be covered by the GNU General Public License. This
COMMENT exception does not however invalidate any other reasons why the
COMMENT document might be covered by the GNU General Public License. If you
COMMENT modify this font, you may extend this exception to your version of
COMMENT the font, but you are not obligated to do so. If you do not wish to
COMMENT do so, delete this exception statement from your version.
FONT -lucy-tewi2a-medium-r-normal--11-90-75-75-m-60-ISO10646-1
SIZE 9 75 75
FONTBOUNDINGBOX 6 13 0 -4
STARTPROPERTIES 20
CHARSET_COLLECTIONS "ISO8859-2 ISO8859-5 ISO8859-9 ISO8859-4 ISO10646-1"
COPYRIGHT "© lucy <ne.tetewi@gmail.com>"
FOUNDRY "lucy"
FAMILY_NAME "tewi2a"
WEIGHT_NAME "medium"
SLANT "r"
SETWIDTH_NAME "normal"
ADD_STYLE_NAME ""
PIXEL_SIZE 11
POINT_SIZE 90
RESOLUTION_X 75
RESOLUTION_Y 75
SPACING "m"
AVERAGE_WIDTH 60
CHARSET_REGISTRY "ISO10646"
CHARSET_ENCODING "1"
FONT_ASCENT 9
FONT_DESCENT 3
QUAD_WIDTH 6
_GBDFED_INFO "Edited with gbdfed 1.6."
ENDPROPERTIES
CHARS 23
STARTCHAR LATIN SMALL LETTER A
ENCODING 97
SWIDTH 640 0
DWIDTH 6 0
BBX 5 5 0 0
BITMAP
70
08
78
88
78
ENDCHAR
STARTCHAR LATIN SMALL LETTER A WITH GRAVE
ENCODING 224
SWIDTH 640 0
DWIDTH 6 0
BBX 5 8 0 0
BITMAP
20
10
00
70
08
78
88
78
ENDCHAR
STARTCHAR LATIN SMALL LETTER A WITH ACUTE
ENCODING 225
SWIDTH 640 0
DWIDTH 6 0
BBX 5 8 0 0
BITMAP
10
20
00
70
08
78
88
78
ENDCHAR
STARTCHAR LATIN SMALL LETTER A WITH CIRCUMFLEX
ENCODING 226
SWIDTH 640 0
DWIDTH 6 0
BBX 5 8 0 0
BITMAP
20
50
00
70
08
78
88
78
ENDCHAR
STARTCHAR LATIN SMALL LETTER A WITH TILDE
ENCODING 227
SWIDTH 640 0
DWIDTH 6 0
BBX 5 8 0 0
BITMAP
68
B0
00
70
08
78
88
78
ENDCHAR
STARTCHAR LATIN SMALL LETTER A WITH DIAERESIS
ENCODING 228
SWIDTH 640 0
DWIDTH 6 0
BBX 5 7 0 0
BITMAP
50
00
70
08
78
88
78
ENDCHAR
STARTCHAR LATIN SMALL LETTER A WITH RING ABOVE
ENCODING 229
SWIDTH 640 0
DWIDTH 6 0
BBX 5 9 0 0
BITMAP
20
50
20
00
70
08
78
88
78
ENDCHAR
STARTCHAR LATIN SMALL LETTER A WITH MACRON
ENCODING 257
SWIDTH 640 0
DWIDTH 6 0
BBX 5 7 0 0
BITMAP
F8
00
70
08
78
88
78
ENDCHAR
STARTCHAR LATIN SMALL LETTER A WITH BREVE
ENCODING 259
SWIDTH 640 0
DWIDTH 6 0
BBX 5 8 0 0
BITMAP
88
70
00
70
08
78
88
78
ENDCHAR
STARTCHAR LATIN SMALL LETTER A WITH OGONEK
ENCODING 261
SWIDTH 640 0
DWIDTH 6 0
BBX 6 6 0 -1
BITMAP
70
08
78
88
78
04
ENDCHAR
STARTCHAR LATIN SMALL LETTER A WITH CARON
ENCODING 462
SWIDTH 640 0
DWIDTH 6 0
BBX 5 8 0 0
BITMAP
50
20
00
70
08
78
88
78
ENDCHAR
STARTCHAR LATIN SMALL LETTER A WITH DIAERESIS AND MACRON
ENCODING 479
SWIDTH 640 0
DWIDTH 6 0
BBX 5 9 0 0
BITMAP
70
00
50
00
70
08
78
88
78
ENDCHAR
STARTCHAR LATIN SMALL LETTER A WITH DOT ABOVE AND MACRON
ENCODING 481
SWIDTH 640 0
DWIDTH 6 0
BBX 5 9 0 0
BITMAP
70
00
20
00
70
08
78
88
78
ENDCHAR
STARTCHAR LATIN SMALL LETTER A WITH RING ABOVE AND ACUTE
ENCODING 507
SWIDTH 640 0
DWIDTH 6 0
BBX 5 9 0 0
BITMAP
10
20
50
20
70
08
78
88
78
ENDCHAR
STARTCHAR LATIN SMALL LETTER A WITH DOUBLE GRAVE
ENCODING 513
SWIDTH 640 0
DWIDTH 6 0
BBX 5 8 0 0
BITMAP
A0
50
00
70
08
78
88
78
ENDCHAR
STARTCHAR LATIN SMALL LETTER A WITH INVERTED BREVE
ENCODING 515
SWIDTH 640 0
DWIDTH 6 0
BBX 5 8 0 0
BITMAP
70
88
00
70
08
78
88
78
ENDCHAR
STARTCHAR LATIN SMALL LETTER A WITH DOT ABOVE
ENCODING 551
SWIDTH 640 0
DWIDTH 6 0
BBX 5 7 0 0
BITMAP
20
00
70
08
78
88
78
ENDCHAR
STARTCHAR LATIN SMALL LETTER TURNED A
ENCODING 592
SWIDTH 640 0
DWIDTH 6 0
BBX 5 5 0 0
BITMAP
F0
88
F0
80
70
ENDCHAR
STARTCHAR LATIN SMALL LETTER A WITH RING BELOW
ENCODING 7681
SWIDTH 640 0
DWIDTH 6 0
BBX 5 8 0 -3
BITMAP
70
08
78
88
78
20
50
20
ENDCHAR
STARTCHAR LATIN SMALL LETTER A WITH DOT BELOW
ENCODING 7841
SWIDTH 640 0
DWIDTH 6 0
BBX 5 7 0 -2
BITMAP
70
08
78
88
78
00
20
ENDCHAR
STARTCHAR LATIN SMALL LETTER A WITH HOOK ABOVE
ENCODING 7843
SWIDTH 640 0
DWIDTH 6 0
BBX 5 9 0 0
BITMAP
20
50
10
20
70
08
78
88
78
ENDCHAR
STARTCHAR LATIN SMALL LETTER A WITH CIRCUMFLEX AND ACUTE
ENCODING 7845
SWIDTH 640 0
DWIDTH 6 0
BBX 5 8 0 0
BITMAP
48
B0
00
70
08
78
88
78
ENDCHAR
STARTCHAR LATIN SMALL LETTER A WITH CIRCUMFLEX AND GRAVE
ENCODING 7847
SWIDTH 640 0
DWIDTH 6 0
BBX 5 8 0 0
BITMAP
90
68
00
70
08
78
88
78
ENDCHAR
ENDFONT
