STARTFONT 2.1
COMMENT shorter hyphen
FONT -lucy-tewihm-medium-r-normal--11-80-100-100-c-60-ISO10646-1
SIZE 11 100 100
FONTBOUNDINGBOX 6 13 0 -3
STARTPROPERTIES 22
COPYRIGHT "© lucy <ne.tetewi@gmail.com>"
FOUNDRY "lucy"
FAMILY_NAME "tewihm"
WEIGHT_NAME "medium"
SLANT "r"
SETWIDTH_NAME "normal"
ADD_STYLE_NAME ""
PIXEL_SIZE 11
POINT_SIZE 80
RESOLUTION_X 100
RESOLUTION_Y 100
SPACING "c"
AVERAGE_WIDTH 60
CHARSET_REGISTRY "ISO10646"
CHARSET_ENCODING "1"
FONT_ASCENT 9
FONT_DESCENT 3
UNDERLINE_POSITION -1
UNDERLINE_THICKNESS 1
NORM_SPACE 6
FIGURE_WIDTH 6
_GBDFED_INFO "Edited with gbdfed 1.6."
ENDPROPERTIES
CHARS 1
STARTCHAR HYPHEN-MINUS
ENCODING 45
SWIDTH 392 0
DWIDTH 6 0
BBX 4 1 1 3
BITMAP
F0
ENDCHAR
ENDFONT
